{
    "asset": {
        "version": "2.0",
        "generator": "Open Asset Import Library (assimp v5.4.0)"
    },
    "extensionsUsed": [
        "KHR_materials_volume",
        "FB_ngon_encoding"
    ],
    "accessors": [
        {
            "bufferView": 0,
            "byteOffset": 0,
            "componentType": 5126,
            "count": 32354,
            "type": "VEC3",
            "max": [
                0.32781982421875,
                0.23416836559772491,
                0.32781982421875
            ],
            "min": [
                -0.32781982421875,
                0.009377637878060341,
                -0.32781982421875
            ]
        },
        {
            "bufferView": 1,
            "byteOffset": 0,
            "componentType": 5126,
            "count": 32354,
            "type": "VEC3",
            "max": [
                0.9978840947151184,
                0.9999482035636902,
                0.9978902339935303
            ],
            "min": [
                -0.9978840947151184,
                -0.9999482035636902,
                -0.9978902339935303
            ]
        },
        {
            "bufferView": 2,
            "byteOffset": 0,
            "componentType": 5126,
            "count": 32354,
            "type": "VEC2",
            "max": [
                0.8750001192092896,
                1.0
            ],
            "min": [
                0.125,
                -1.1920928955078125e-7
            ]
        },
        {
            "bufferView": 3,
            "byteOffset": 0,
            "componentType": 5125,
            "count": 36864,
            "type": "SCALAR",
            "max": [
                32353
            ],
            "min": [
                0
            ]
        },
        {
            "bufferView": 4,
            "byteOffset": 0,
            "componentType": 5126,
            "count": 32354,
            "type": "VEC3",
            "max": [
                0.32781982421875,
                0.23416836559772491,
                0.32781982421875
            ],
            "min": [
                -0.32781982421875,
                0.009377637878060341,
                -0.32781982421875
            ]
        },
        {
            "bufferView": 5,
            "byteOffset": 0,
            "componentType": 5126,
            "count": 32354,
            "type": "VEC3",
            "max": [
                0.9978840947151184,
                0.9999482035636902,
                0.9978902339935303
            ],
            "min": [
                -0.9978840947151184,
                -0.9999482035636902,
                -0.9978902339935303
            ]
        },
        {
            "bufferView": 6,
            "byteOffset": 0,
            "componentType": 5126,
            "count": 32354,
            "type": "VEC2",
            "max": [
                0.8750001192092896,
                1.0
            ],
            "min": [
                0.125,
                -1.1920928955078125e-7
            ]
        },
        {
            "bufferView": 7,
            "byteOffset": 0,
            "componentType": 5125,
            "count": 36864,
            "type": "SCALAR",
            "max": [
                32353
            ],
            "min": [
                0
            ]
        },
        {
            "bufferView": 8,
            "byteOffset": 0,
            "componentType": 5126,
            "count": 24,
            "type": "VEC3",
            "max": [
                3.5,
                1.0,
                3.5
            ],
            "min": [
                -3.5,
                -1.0,
                -3.5
            ]
        },
        {
            "bufferView": 9,
            "byteOffset": 0,
            "componentType": 5126,
            "count": 24,
            "type": "VEC3",
            "max": [
                1.0,
                1.0,
                1.0
            ],
            "min": [
                -1.0,
                -1.0,
                -1.0
            ]
        },
        {
            "bufferView": 10,
            "byteOffset": 0,
            "componentType": 5126,
            "count": 24,
            "type": "VEC2",
            "max": [
                0.875,
                1.0
            ],
            "min": [
                0.125,
                0.0
            ]
        },
        {
            "bufferView": 11,
            "byteOffset": 0,
            "componentType": 5125,
            "count": 36,
            "type": "SCALAR",
            "max": [
                23
            ],
            "min": [
                0
            ]
        }
    ],
    "buffers": [
        {
            "byteLength": 2366480,
            "uri": "go-board_0.bin"
        }
    ],
    "bufferViews": [
        {
            "buffer": 0,
            "byteOffset": 0,
            "byteLength": 388248,
            "target": 34962
        },
        {
            "buffer": 0,
            "byteOffset": 388248,
            "byteLength": 388248,
            "target": 34962
        },
        {
            "buffer": 0,
            "byteOffset": 776496,
            "byteLength": 258832,
            "target": 34962
        },
        {
            "buffer": 0,
            "byteOffset": 1035328,
            "byteLength": 147456,
            "target": 34963
        },
        {
            "buffer": 0,
            "byteOffset": 1182784,
            "byteLength": 388248,
            "target": 34962
        },
        {
            "buffer": 0,
            "byteOffset": 1571032,
            "byteLength": 388248,
            "target": 34962
        },
        {
            "buffer": 0,
            "byteOffset": 1959280,
            "byteLength": 258832,
            "target": 34962
        },
        {
            "buffer": 0,
            "byteOffset": 2218112,
            "byteLength": 147456,
            "target": 34963
        },
        {
            "buffer": 0,
            "byteOffset": 2365568,
            "byteLength": 288,
            "target": 34962
        },
        {
            "buffer": 0,
            "byteOffset": 2365856,
            "byteLength": 288,
            "target": 34962
        },
        {
            "buffer": 0,
            "byteOffset": 2366144,
            "byteLength": 192,
            "target": 34962
        },
        {
            "buffer": 0,
            "byteOffset": 2366336,
            "byteLength": 144,
            "target": 34963
        }
    ],
    "images": [
        {
            "uri": "textures/image_0.png"
        },
        {
            "uri": "textures/image_1.png"
        },
        {
            "uri": "textures/image_2.png"
        }
    ],
    "materials": [
        {
            "name": "Material.001",
            "pbrMetallicRoughness": {
                "baseColorTexture": {
                    "index": 0
                },
                "metallicFactor": 0.0,
                "roughnessFactor": 0.5
            },
            "doubleSided": true
        },
        {
            "name": "Material.002",
            "pbrMetallicRoughness": {
                "baseColorTexture": {
                    "index": 1
                },
                "metallicFactor": 0.0,
                "roughnessFactor": 0.5
            },
            "doubleSided": true
        },
        {
            "name": "Material",
            "pbrMetallicRoughness": {
                "baseColorTexture": {
                    "index": 2
                },
                "metallicFactor": 0.0,
                "roughnessFactor": 0.5
            },
            "doubleSided": true
        }
    ],
    "meshes": [
        {
            "name": "meshes[0]",
            "primitives": [
                {
                    "mode": 4,
                    "material": 0,
                    "indices": 3,
                    "attributes": {
                        "POSITION": 0,
                        "NORMAL": 1,
                        "TEXCOORD_0": 2
                    }
                }
            ]
        },
        {
            "name": "meshes[1]",
            "primitives": [
                {
                    "mode": 4,
                    "material": 1,
                    "indices": 7,
                    "attributes": {
                        "POSITION": 4,
                        "NORMAL": 5,
                        "TEXCOORD_0": 6
                    }
                }
            ]
        },
        {
            "name": "meshes[2]",
            "primitives": [
                {
                    "mode": 4,
                    "material": 2,
                    "indices": 11,
                    "attributes": {
                        "POSITION": 8,
                        "NORMAL": 9,
                        "TEXCOORD_0": 10
                    }
                }
            ]
        }
    ],
    "nodes": [
        {
            "name": "go-board",
            "children": [
                1,
                2,
                3
            ]
        },
        {
            "name": "Cube001",
            "matrix": [
                1.0,
                0.0,
                0.0,
                0.0,
                0.0,
                1.0,
                0.0,
                0.0,
                0.0,
                0.0,
                1.0,
                0.0,
                -0.5110759735107422,
                1.369201898574829,
                0.8633402585983276,
                1.0
            ],
            "mesh": 0,
            "extras": {
                "name": "Cube.001"
            }
        },
        {
            "name": "Cube002",
            "matrix": [
                1.0,
                0.0,
                0.0,
                0.0,
                0.0,
                1.0,
                0.0,
                0.0,
                0.0,
                0.0,
                1.0,
                0.0,
                0.6456222534179688,
                2.1236233711242676,
                1.705368995666504,
                1.0
            ],
            "mesh": 1,
            "extras": {
                "name": "Cube.002"
            }
        },
        {
            "name": "Cube",
            "mesh": 2,
            "extras": {
                "name": "Cube"
            }
        }
    ],
    "samplers": [
        {
            "magFilter": 9729,
            "minFilter": 9987
        },
        {
            "magFilter": 9729,
            "minFilter": 9987
        },
        {
            "magFilter": 9729,
            "minFilter": 9987
        }
    ],
    "scenes": [
        {
            "nodes": [
                0
            ]
        }
    ],
    "textures": [
        {
            "source": 0,
            "sampler": 0
        },
        {
            "source": 1,
            "sampler": 1
        },
        {
            "source": 2,
            "sampler": 2
        }
    ],
    "scene": 0
}